<?xml version="1.0" encoding="utf-8"?>
<!-- Uploaded to: SVG Repo, www.svgrepo.com, Generator: SVG Repo Mixer Tools -->
<svg width="800px" height="800px" viewBox="0 0 1024 1024" class="icon"  version="1.1" xmlns="http://www.w3.org/2000/svg"><path d="M645.12 373.76c99.328-48.128 209.408-71.168 319.488-67.072C892.416 389.12 803.328 454.656 699.904 493.056c-0.512 0-1.024 0.512-1.536 1.024-0.512 0.512-1.024 0.512-1.536 1.024-3.584 3.584-4.608 9.216-1.024 13.312 1.024 1.536 2.56 3.072 4.608 3.584 100.352 58.88 184.32 149.504 245.248 248.32-108.032-14.336-210.944-55.808-300.032-118.784-7.68-5.632-14.848 3.072-13.312 10.24v2.048c4.608 109.056-16.896 217.6-63.488 315.904-46.592-99.84-68.096-209.92-62.464-320 0-2.56-0.512-5.12-2.048-6.144-1.536-5.12-7.68-9.216-13.824-6.144-96.768 52.736-204.288 81.408-314.368 82.944 69.632-88.576 160.256-158.208 263.68-202.752 9.728-4.096 3.584-16.896-5.12-17.408-102.4-44.544-193.024-113.664-262.144-201.728 110.08 1.536 217.6 29.696 314.368 82.944 6.144 3.584 11.776-0.512 13.824-6.144 1.536-1.536 2.56-3.584 2.048-6.144-5.632-110.592 15.872-220.16 62.464-320.512 46.592 98.816 68.096 206.848 63.488 315.904-0.512 6.144 4.096 9.216 8.704 9.216 1.536 1.024 4.608 1.024 7.68 0z m-50.688 201.728c44.032-8.704 54.272-62.976 51.712-100.864-4.096-55.808-57.856-60.928-103.424-57.856-0.512 0-1.024 0-1.536 0.512h-2.56c-45.568 10.24-47.616 59.904-42.496 98.304 6.656 47.616 53.76 68.608 98.304 59.904z" fill="#E96195" /><path d="M814.08 458.24c45.568 11.264 92.672 23.552 130.048 53.248-41.472 19.968-82.432 40.96-122.88 63.488-1.024 0.512-1.536 1.024-2.048 1.536-29.696-27.136-61.44-51.712-95.232-72.704 31.232-12.8 61.44-28.16 90.112-45.568zM740.864 719.36c13.824 44.544 27.648 90.112 22.016 136.704-38.4-25.088-77.824-48.64-117.76-71.68-0.512-0.512-1.024-0.512-1.536-0.512 5.632-38.4 8.192-76.8 7.168-115.712 28.672 19.456 58.88 36.352 90.112 51.2zM757.76 308.736c0 1.024 0.512 1.536 0.512 2.048-37.888 10.24-75.264 24.064-111.104 40.448 0.512-25.6 0-50.688-2.048-76.288l1.024-1.024c28.16-38.4 57.344-77.824 98.816-101.376 3.072 45.568 7.168 91.136 12.8 136.192z" fill="#EE8067" /><path d="M750.592 148.992s0-0.512 0 0H755.2c3.584 0.512 6.656 3.072 7.68 7.168 0.512 1.024 0.512 2.56 0.512 3.584 3.072 49.152 7.168 98.304 13.312 146.944 66.56-16.384 135.68-22.528 204.8-18.432 7.168 0.512 10.24 7.168 8.704 12.288 0.512 2.56 0 5.632-2.048 7.68-44.032 52.736-94.72 98.304-151.552 136.192C884.224 456.704 931.328 472.576 967.68 506.88c2.56 2.048 3.072 4.608 3.072 7.168 0 3.072-1.024 6.144-4.608 7.68-45.056 21.504-89.088 44.032-132.608 68.096 53.248 51.2 99.328 111.104 136.192 173.568 7.68 4.608 6.144 18.944-4.096 17.408-69.632-7.168-137.728-24.576-201.216-52.224 14.336 47.104 25.088 95.232 14.848 144.896-0.512 4.096-3.072 6.144-6.144 6.656-2.56 1.024-5.12 1.024-7.68-1.024-40.96-26.624-82.432-52.224-124.928-76.288-11.776 67.584-33.792 133.12-65.024 194.56-5.12 9.728-18.432 3.072-17.408-6.144-34.304-69.632-56.832-144.384-66.56-221.184-32.768 36.864-67.584 71.68-115.2 89.088-4.096 1.536-7.168 0-9.216-2.56-1.536-1.536-2.56-3.584-2.56-6.656 1.024-47.104 0.512-93.696-1.024-140.8-66.56 19.968-135.68 29.696-205.824 28.672-9.216 0-11.776-11.264-6.656-16.384 0-1.536 0.512-2.56 1.536-4.096 37.888-49.664 81.408-93.696 130.56-131.584-41.984-23.04-83.968-44.544-126.976-65.024-3.584-1.536-5.12-4.608-4.608-7.68 0-2.56 0.512-5.12 3.072-7.168 38.912-36.352 89.6-52.224 140.288-65.024-54.784-39.936-103.936-88.064-145.408-142.336-1.024-1.536-1.536-2.56-1.536-4.096-5.12-5.12-2.56-16.384 6.656-16.384 74.24-1.024 147.968 10.24 218.624 32.768-17.408-50.176-31.744-100.864-22.528-154.112 0.512-4.608 3.584-6.656 7.168-6.656 2.048-0.512 4.096-0.512 6.656 1.024 41.472 25.088 83.968 49.664 127.488 72.192 10.752-68.608 32.256-135.68 63.488-198.144-1.024-9.216 12.288-15.872 17.408-6.144 36.352 71.68 59.904 148.48 70.144 227.84 29.184-38.912 60.928-76.8 105.472-97.792 0 0.512 1.024 0 2.048 0z m214.016 157.696c-110.08-4.096-220.16 18.432-319.488 67.072-3.072 1.536-5.632 1.024-8.192 0-4.608 0-9.216-3.072-8.704-9.216 4.608-109.056-16.896-217.6-63.488-315.904-46.592 99.84-68.096 209.92-62.464 320.512 0 2.56-0.512 5.12-2.048 6.144-1.536 5.12-7.68 9.216-13.824 6.144-96.768-52.736-204.288-81.408-314.368-82.944C241.152 386.56 331.264 455.68 433.664 500.224c9.216 0.512 14.848 13.312 5.12 17.408-103.424 44.544-194.56 114.176-263.68 202.752 110.08-1.536 217.6-29.696 314.368-82.944 6.144-3.584 12.288 0.512 13.824 6.144 1.536 1.536 2.56 3.584 2.048 6.144-5.632 110.592 15.872 220.16 62.464 320 46.592-98.304 68.096-206.848 63.488-315.904v-2.048c-1.536-7.168 6.144-15.872 13.312-10.24 89.088 63.488 192 104.448 300.032 118.784-60.928-98.816-144.896-189.44-245.248-248.32-2.048-0.512-3.584-1.536-4.608-3.584-3.584-4.096-2.56-9.728 1.024-13.312 0.512-0.512 1.024-1.024 1.536-1.024 0.512-0.512 1.024-0.512 1.536-1.024 104.448-38.4 193.536-103.936 265.728-186.368z m-20.48 204.8C906.752 481.792 860.16 469.504 814.08 458.24c-28.672 17.408-58.88 32.768-90.624 45.568 33.792 20.992 65.536 45.568 95.232 72.704 0.512-0.512 1.536-1.024 2.048-1.536 40.96-22.016 81.92-43.52 123.392-63.488zM762.88 856.064c5.632-46.592-7.68-92.672-22.016-136.704-31.232-14.848-61.44-31.744-90.112-51.2 1.024 38.912-1.536 77.824-7.168 115.712 0.512 0 1.024 0.512 1.536 0.512 39.936 23.04 78.848 46.592 117.76 71.68z m-4.608-544.768c-0.512-0.512-0.512-1.536-0.512-2.048-5.632-45.056-9.728-90.624-12.8-136.192-41.472 24.064-71.168 62.976-98.816 101.376-0.512 0.512-0.512 1.024-1.024 1.024 2.048 25.088 3.072 50.688 2.048 76.288 35.84-16.896 73.216-30.208 111.104-40.448z m-269.824-67.072c-0.512 0-1.536-0.512-2.048-1.024-40.448-21.504-80.384-44.032-119.808-67.584-4.608 48.128 11.776 95.232 27.648 140.8 0.512 1.024 0.512 2.048 0.512 2.56 30.208 10.752 59.392 23.552 88.064 38.4-1.536-37.376 0.512-75.264 5.632-113.152z m0 500.736c-2.56-28.16-3.072-56.32-2.048-84.48-33.792 17.408-68.608 32.256-104.448 44.032 1.536 44.032 2.048 88.064 1.536 132.096 42.496-19.968 74.752-55.808 104.96-91.648z m-188.928-170.496c34.304-25.088 71.168-46.592 110.08-64.512-33.28-15.36-65.536-33.792-95.744-53.76-1.024 1.024-2.048 1.536-3.584 2.048-46.592 11.264-94.72 23.552-132.608 53.76 41.472 19.456 81.92 40.448 121.856 62.464z" fill="#BE4B53" /><path d="M646.144 474.624c2.56 37.888-7.68 92.16-51.712 100.864-44.544 8.704-91.648-12.288-97.792-59.904-5.12-38.4-3.072-88.064 42.496-98.304h2.56c0.512 0 1.024 0 1.536-0.512 45.056-3.072 98.816 2.048 102.912 57.856z m-54.272 81.92c32.256-7.168 36.864-51.712 35.328-78.848-1.024-22.016-11.776-35.328-33.28-39.424-16.384-3.072-33.792-3.072-50.176-2.048-33.792 8.192-33.28 52.736-28.16 80.896 6.656 33.792 44.544 46.592 76.288 39.424z" fill="#BE4B53" /><path d="M627.2 477.696c1.536 27.136-3.584 71.68-35.328 78.848-31.744 7.168-69.632-5.632-76.288-39.936-5.12-28.16-6.144-72.704 28.16-80.896 16.896-1.024 33.792-1.024 50.176 2.048 22.016 4.608 32.256 17.92 33.28 39.936zM486.4 243.712c0.512 0.512 1.536 0.512 2.048 1.024-5.12 37.376-6.656 75.264-5.632 113.664-28.672-14.848-57.856-27.648-88.064-38.4 0-1.024 0-1.536-0.512-2.56-15.872-45.056-31.744-92.16-27.648-140.8 39.424 23.04 79.36 45.568 119.808 67.072zM486.4 660.48c-1.024 28.16-0.512 56.832 2.048 84.48-30.208 35.328-62.464 71.68-104.96 91.648 0.512-44.032 0-88.064-1.536-132.096 35.84-11.776 70.656-26.624 104.448-44.032zM409.6 509.952c-38.912 17.92-75.264 39.936-110.08 64.512-39.936-22.016-80.896-43.008-121.856-62.976 37.888-30.208 86.016-42.496 132.608-53.76 1.536-0.512 2.56-1.024 3.584-2.048 30.208 20.48 62.464 38.912 95.744 54.272z" fill="#EE8067" /></svg>